<mxfile host="65bd71144e">
    <diagram id="4ZWK0EVu7hy37HVAt-Wv" name="Page-1">
        <mxGraphModel dx="3393" dy="1911" grid="0" gridSize="10" guides="1" tooltips="1" connect="1" arrows="1" fold="1" page="1" pageScale="1" pageWidth="850" pageHeight="1100" math="0" shadow="0">
            <root>
                <mxCell id="0"/>
                <mxCell id="1" parent="0"/>
                <mxCell id="111" value="" style="rounded=0;whiteSpace=wrap;html=1;" parent="1" vertex="1">
                    <mxGeometry x="2" width="3396" height="2197" as="geometry"/>
                </mxCell>
                <mxCell id="167" value="" style="rounded=0;whiteSpace=wrap;html=1;" parent="1" vertex="1">
                    <mxGeometry x="162" y="600.98" width="2996" height="1555.02" as="geometry"/>
                </mxCell>
                <mxCell id="166" value="" style="rounded=0;whiteSpace=wrap;html=1;" parent="1" vertex="1">
                    <mxGeometry x="160" y="95" width="2991" height="246" as="geometry"/>
                </mxCell>
                <mxCell id="112" value="Bitso Yield Conciliation (Flexible) Flow" style="text;html=1;strokeColor=#2D7600;fillColor=#60a917;align=center;verticalAlign=middle;whiteSpace=wrap;rounded=0;fontColor=#ffffff;" parent="1" vertex="1">
                    <mxGeometry width="349" height="30" as="geometry"/>
                </mxCell>
                <mxCell id="113" value="&lt;span style=&quot;color: rgb(240 , 240 , 240) ; font-family: &amp;#34;helvetica&amp;#34; ; font-size: 12px ; font-style: normal ; letter-spacing: normal ; text-align: center ; text-indent: 0px ; text-transform: none ; word-spacing: 0px ; background-color: rgb(42 , 42 , 42) ; display: inline ; float: none&quot;&gt;&lt;b&gt;Whalefin Environment&lt;/b&gt;&lt;/span&gt;" style="text;whiteSpace=wrap;html=1;" parent="1" vertex="1">
                    <mxGeometry x="167.99666666666656" y="100.00111111111096" width="137" height="28" as="geometry"/>
                </mxCell>
                <mxCell id="158" value="" style="group" parent="1" vertex="1" connectable="0">
                    <mxGeometry x="349" y="156.75" width="177.5" height="90" as="geometry"/>
                </mxCell>
                <mxCell id="159" value="" style="group" parent="158" vertex="1" connectable="0">
                    <mxGeometry x="-6" width="183.5" height="90" as="geometry"/>
                </mxCell>
                <mxCell id="160" value="whalefin-asset" style="rounded=0;whiteSpace=wrap;html=1;" parent="159" vertex="1">
                    <mxGeometry x="23.5" y="30" width="160" height="60" as="geometry"/>
                </mxCell>
                <mxCell id="161" value="" style="sketch=0;html=1;dashed=0;whitespace=wrap;fillColor=#2875E2;strokeColor=#ffffff;points=[[0.005,0.63,0],[0.1,0.2,0],[0.9,0.2,0],[0.5,0,0],[0.995,0.63,0],[0.72,0.99,0],[0.5,1,0],[0.28,0.99,0]];shape=mxgraph.kubernetes.icon;prIcon=api;shadow=0;fontSize=12;" parent="159" vertex="1">
                    <mxGeometry width="50" height="48" as="geometry"/>
                </mxCell>
                <mxCell id="168" value="&lt;span style=&quot;color: rgb(240 , 240 , 240) ; font-family: &amp;#34;helvetica&amp;#34; ; font-size: 12px ; font-style: normal ; font-weight: 400 ; letter-spacing: normal ; text-align: center ; text-indent: 0px ; text-transform: none ; word-spacing: 0px ; background-color: rgb(42 , 42 , 42) ; display: inline ; float: none&quot;&gt;Bitso Environment&lt;/span&gt;" style="text;whiteSpace=wrap;html=1;" parent="1" vertex="1">
                    <mxGeometry x="167.99666666666653" y="612.981111111111" width="137" height="28" as="geometry"/>
                </mxCell>
                <mxCell id="173" style="edgeStyle=none;html=1;entryX=0;entryY=0.5;entryDx=0;entryDy=0;fontColor=#FFFFFF;endArrow=classic;endFill=1;strokeColor=#FFFFFF;" parent="1" source="169" target="171" edge="1">
                    <mxGeometry relative="1" as="geometry">
                        <Array as="points">
                            <mxPoint x="227" y="1020"/>
                        </Array>
                    </mxGeometry>
                </mxCell>
                <mxCell id="169" value="" style="sketch=0;html=1;aspect=fixed;strokeColor=none;shadow=0;align=center;verticalAlign=top;fillColor=#3B8DF1;shape=mxgraph.gcp2.clock" parent="1" vertex="1">
                    <mxGeometry x="204.5" y="880" width="45" height="45" as="geometry"/>
                </mxCell>
                <mxCell id="170" value="" style="group" parent="1" vertex="1" connectable="0">
                    <mxGeometry x="256.5" y="960" width="177.5" height="90" as="geometry"/>
                </mxCell>
                <mxCell id="171" value="bitso-whalefin-balance" style="rounded=0;whiteSpace=wrap;html=1;" parent="170" vertex="1">
                    <mxGeometry x="17.5" y="30" width="160" height="60" as="geometry"/>
                </mxCell>
                <mxCell id="172" value="" style="verticalLabelPosition=bottom;html=1;verticalAlign=top;align=center;strokeColor=none;fillColor=#00BEF2;shape=mxgraph.azure.startup_task;pointerEvents=1;labelBackgroundColor=#2A2A2A;fontColor=#FFFFFF;gradientColor=none;shadow=0;" parent="170" vertex="1">
                    <mxGeometry width="47.5" height="50" as="geometry"/>
                </mxCell>
                <mxCell id="175" style="edgeStyle=none;html=1;entryX=0.5;entryY=1;entryDx=0;entryDy=0;fontColor=#FFFFFF;endArrow=classic;endFill=1;strokeColor=#FFFFFF;" parent="1" source="171" target="160" edge="1">
                    <mxGeometry relative="1" as="geometry">
                        <Array as="points">
                            <mxPoint x="354" y="572"/>
                            <mxPoint x="447" y="572"/>
                        </Array>
                    </mxGeometry>
                </mxCell>
                <mxCell id="176" value="&lt;font style=&quot;font-size: 12px&quot;&gt;get-balances&lt;/font&gt;" style="edgeLabel;html=1;align=center;verticalAlign=middle;resizable=0;points=[];fontColor=#FFFFFF;" parent="175" vertex="1" connectable="0">
                    <mxGeometry x="0.307" y="-4" relative="1" as="geometry">
                        <mxPoint x="-102" y="188" as="offset"/>
                    </mxGeometry>
                </mxCell>
                <mxCell id="212" value="" style="edgeStyle=none;html=1;fontColor=#FFFFFF;endArrow=none;endFill=0;strokeColor=#FFFFFF;dashed=1;" parent="1" source="177" target="211" edge="1">
                    <mxGeometry relative="1" as="geometry"/>
                </mxCell>
                <mxCell id="177" value="&lt;font color=&quot;#ffffff&quot;&gt;whalefin-aum-balances&lt;/font&gt;" style="sketch=0;points=[[0,0,0],[0.25,0,0],[0.5,0,0],[0.75,0,0],[1,0,0],[0,1,0],[0.25,1,0],[0.5,1,0],[0.75,1,0],[1,1,0],[0,0.25,0],[0,0.5,0],[0,0.75,0],[1,0.25,0],[1,0.5,0],[1,0.75,0]];outlineConnect=0;fontColor=#232F3E;gradientColor=#4D72F3;gradientDirection=north;fillColor=#3334B9;strokeColor=#ffffff;dashed=0;verticalLabelPosition=bottom;verticalAlign=top;align=center;html=1;fontSize=12;fontStyle=0;aspect=fixed;shape=mxgraph.aws4.resourceIcon;resIcon=mxgraph.aws4.aurora;" parent="1" vertex="1">
                    <mxGeometry x="596" y="671.48" width="66" height="66" as="geometry"/>
                </mxCell>
                <mxCell id="183" style="edgeStyle=none;html=1;entryX=0;entryY=0.5;entryDx=0;entryDy=0;entryPerimeter=0;fontColor=#FFFFFF;endArrow=classic;endFill=1;strokeColor=#FFFFFF;exitX=0.75;exitY=0;exitDx=0;exitDy=0;" parent="1" source="171" target="177" edge="1">
                    <mxGeometry relative="1" as="geometry">
                        <Array as="points">
                            <mxPoint x="394" y="898"/>
                            <mxPoint x="478" y="898"/>
                            <mxPoint x="478" y="704"/>
                        </Array>
                    </mxGeometry>
                </mxCell>
                <mxCell id="245" value="save-update" style="edgeLabel;html=1;align=center;verticalAlign=middle;resizable=0;points=[];fontColor=#FFFFFF;" parent="183" vertex="1" connectable="0">
                    <mxGeometry x="0.2236" y="-3" relative="1" as="geometry">
                        <mxPoint x="-5" y="-49" as="offset"/>
                    </mxGeometry>
                </mxCell>
                <mxCell id="184" value="" style="endArrow=none;dashed=1;html=1;strokeColor=#FFFFFF;" parent="1" edge="1">
                    <mxGeometry width="50" height="50" relative="1" as="geometry">
                        <mxPoint x="747" y="2164" as="sourcePoint"/>
                        <mxPoint x="747" y="19" as="targetPoint"/>
                    </mxGeometry>
                </mxCell>
                <mxCell id="185" style="edgeStyle=none;html=1;entryX=0;entryY=0.5;entryDx=0;entryDy=0;fontColor=#FFFFFF;endArrow=classic;endFill=1;strokeColor=#FFFFFF;" parent="1" source="186" target="188" edge="1">
                    <mxGeometry relative="1" as="geometry">
                        <Array as="points">
                            <mxPoint x="849" y="962"/>
                            <mxPoint x="849" y="1007"/>
                        </Array>
                    </mxGeometry>
                </mxCell>
                <mxCell id="186" value="" style="sketch=0;html=1;aspect=fixed;strokeColor=none;shadow=0;align=center;verticalAlign=top;fillColor=#3B8DF1;shape=mxgraph.gcp2.clock" parent="1" vertex="1">
                    <mxGeometry x="826" y="868" width="45" height="45" as="geometry"/>
                </mxCell>
                <mxCell id="187" value="" style="group" parent="1" vertex="1" connectable="0">
                    <mxGeometry x="866" y="948" width="177.5" height="90" as="geometry"/>
                </mxCell>
                <mxCell id="188" value="bitso-whalefin-deposit" style="rounded=0;whiteSpace=wrap;html=1;" parent="187" vertex="1">
                    <mxGeometry x="17.5" y="30" width="160" height="60" as="geometry"/>
                </mxCell>
                <mxCell id="189" value="" style="verticalLabelPosition=bottom;html=1;verticalAlign=top;align=center;strokeColor=none;fillColor=#00BEF2;shape=mxgraph.azure.startup_task;pointerEvents=1;labelBackgroundColor=#2A2A2A;fontColor=#FFFFFF;gradientColor=none;shadow=0;" parent="187" vertex="1">
                    <mxGeometry width="47.5" height="50" as="geometry"/>
                </mxCell>
                <mxCell id="214" style="edgeStyle=none;html=1;entryX=0.5;entryY=0;entryDx=0;entryDy=0;entryPerimeter=0;dashed=1;fontColor=#FFFFFF;endArrow=none;endFill=0;strokeColor=#FFFFFF;" parent="1" source="190" target="213" edge="1">
                    <mxGeometry relative="1" as="geometry"/>
                </mxCell>
                <mxCell id="190" value="&lt;font color=&quot;#ffffff&quot;&gt;whalefin-deposits&lt;/font&gt;" style="sketch=0;points=[[0,0,0],[0.25,0,0],[0.5,0,0],[0.75,0,0],[1,0,0],[0,1,0],[0.25,1,0],[0.5,1,0],[0.75,1,0],[1,1,0],[0,0.25,0],[0,0.5,0],[0,0.75,0],[1,0.25,0],[1,0.5,0],[1,0.75,0]];outlineConnect=0;fontColor=#232F3E;gradientColor=#4D72F3;gradientDirection=north;fillColor=#3334B9;strokeColor=#ffffff;dashed=0;verticalLabelPosition=bottom;verticalAlign=top;align=center;html=1;fontSize=12;fontStyle=0;aspect=fixed;shape=mxgraph.aws4.resourceIcon;resIcon=mxgraph.aws4.aurora;" parent="1" vertex="1">
                    <mxGeometry x="1199" y="663.98" width="66" height="66" as="geometry"/>
                </mxCell>
                <mxCell id="191" style="edgeStyle=none;html=1;entryX=0;entryY=0.5;entryDx=0;entryDy=0;entryPerimeter=0;fontColor=#FFFFFF;endArrow=classic;endFill=1;strokeColor=#FFFFFF;exitX=0.75;exitY=0;exitDx=0;exitDy=0;" parent="1" source="188" target="190" edge="1">
                    <mxGeometry relative="1" as="geometry">
                        <Array as="points">
                            <mxPoint x="1004" y="855"/>
                            <mxPoint x="1093" y="855"/>
                            <mxPoint x="1093" y="754"/>
                            <mxPoint x="1093" y="697"/>
                        </Array>
                    </mxGeometry>
                </mxCell>
                <mxCell id="244" value="save" style="edgeLabel;html=1;align=center;verticalAlign=middle;resizable=0;points=[];fontColor=#FFFFFF;" parent="191" vertex="1" connectable="0">
                    <mxGeometry x="0.1382" y="1" relative="1" as="geometry">
                        <mxPoint x="2" y="-77" as="offset"/>
                    </mxGeometry>
                </mxCell>
                <mxCell id="192" value="" style="group" parent="1" vertex="1" connectable="0">
                    <mxGeometry x="962.75" y="161" width="177.5" height="90" as="geometry"/>
                </mxCell>
                <mxCell id="193" value="" style="group" parent="192" vertex="1" connectable="0">
                    <mxGeometry x="-6" width="183.5" height="90" as="geometry"/>
                </mxCell>
                <mxCell id="194" value="whalefin-wallet" style="rounded=0;whiteSpace=wrap;html=1;" parent="193" vertex="1">
                    <mxGeometry x="23.5" y="30" width="160" height="60" as="geometry"/>
                </mxCell>
                <mxCell id="195" value="" style="sketch=0;html=1;dashed=0;whitespace=wrap;fillColor=#2875E2;strokeColor=#ffffff;points=[[0.005,0.63,0],[0.1,0.2,0],[0.9,0.2,0],[0.5,0,0],[0.995,0.63,0],[0.72,0.99,0],[0.5,1,0],[0.28,0.99,0]];shape=mxgraph.kubernetes.icon;prIcon=api;shadow=0;fontSize=12;" parent="193" vertex="1">
                    <mxGeometry width="50" height="48" as="geometry"/>
                </mxCell>
                <mxCell id="196" style="edgeStyle=none;html=1;entryX=0.5;entryY=1;entryDx=0;entryDy=0;fontColor=#FFFFFF;endArrow=classic;endFill=1;strokeColor=#FFFFFF;startArrow=none;exitX=0.5;exitY=0;exitDx=0;exitDy=0;" parent="1" source="188" target="194" edge="1">
                    <mxGeometry relative="1" as="geometry">
                        <mxPoint x="963.1440796483753" y="693.98" as="sourcePoint"/>
                        <Array as="points">
                            <mxPoint x="964" y="566"/>
                            <mxPoint x="1060" y="566"/>
                        </Array>
                    </mxGeometry>
                </mxCell>
                <mxCell id="197" value="get-deposits&lt;br&gt;&amp;lt;createEndTime, createStartTime, ccy&amp;gt;&amp;nbsp;&amp;nbsp;" style="edgeLabel;html=1;align=center;verticalAlign=middle;resizable=0;points=[];fontColor=#FFFFFF;" parent="196" vertex="1" connectable="0">
                    <mxGeometry x="0.2774" y="3" relative="1" as="geometry">
                        <mxPoint x="-94" y="164" as="offset"/>
                    </mxGeometry>
                </mxCell>
                <mxCell id="199" style="edgeStyle=none;html=1;entryX=0;entryY=0.5;entryDx=0;entryDy=0;fontColor=#FFFFFF;endArrow=classic;endFill=1;strokeColor=#FFFFFF;" parent="1" source="200" target="202" edge="1">
                    <mxGeometry relative="1" as="geometry">
                        <Array as="points">
                            <mxPoint x="1515" y="951"/>
                            <mxPoint x="1515" y="999"/>
                        </Array>
                    </mxGeometry>
                </mxCell>
                <mxCell id="200" value="" style="sketch=0;html=1;aspect=fixed;strokeColor=none;shadow=0;align=center;verticalAlign=top;fillColor=#3B8DF1;shape=mxgraph.gcp2.clock" parent="1" vertex="1">
                    <mxGeometry x="1492" y="853" width="45" height="45" as="geometry"/>
                </mxCell>
                <mxCell id="201" value="" style="group" parent="1" vertex="1" connectable="0">
                    <mxGeometry x="1537" y="939" width="177.5" height="90" as="geometry"/>
                </mxCell>
                <mxCell id="202" value="bitso-whalefin-interest" style="rounded=0;whiteSpace=wrap;html=1;" parent="201" vertex="1">
                    <mxGeometry x="17.5" y="30" width="160" height="60" as="geometry"/>
                </mxCell>
                <mxCell id="203" value="" style="verticalLabelPosition=bottom;html=1;verticalAlign=top;align=center;strokeColor=none;fillColor=#00BEF2;shape=mxgraph.azure.startup_task;pointerEvents=1;labelBackgroundColor=#2A2A2A;fontColor=#FFFFFF;gradientColor=none;shadow=0;" parent="201" vertex="1">
                    <mxGeometry width="47.5" height="50" as="geometry"/>
                </mxCell>
                <mxCell id="226" style="edgeStyle=none;html=1;entryX=0.5;entryY=0;entryDx=0;entryDy=0;entryPerimeter=0;dashed=1;fontColor=#FFFFFF;startArrow=none;startFill=0;endArrow=none;endFill=0;strokeColor=#FFFFFF;" parent="1" source="204" target="216" edge="1">
                    <mxGeometry relative="1" as="geometry"/>
                </mxCell>
                <mxCell id="204" value="&lt;font color=&quot;#ffffff&quot;&gt;whalefin-interest&lt;/font&gt;" style="sketch=0;points=[[0,0,0],[0.25,0,0],[0.5,0,0],[0.75,0,0],[1,0,0],[0,1,0],[0.25,1,0],[0.5,1,0],[0.75,1,0],[1,1,0],[0,0.25,0],[0,0.5,0],[0,0.75,0],[1,0.25,0],[1,0.5,0],[1,0.75,0]];outlineConnect=0;fontColor=#232F3E;gradientColor=#4D72F3;gradientDirection=north;fillColor=#3334B9;strokeColor=#ffffff;dashed=0;verticalLabelPosition=bottom;verticalAlign=top;align=center;html=1;fontSize=12;fontStyle=0;aspect=fixed;shape=mxgraph.aws4.resourceIcon;resIcon=mxgraph.aws4.aurora;" parent="1" vertex="1">
                    <mxGeometry x="2149.5" y="663.98" width="66" height="66" as="geometry"/>
                </mxCell>
                <mxCell id="205" style="edgeStyle=none;html=1;entryX=0;entryY=0.5;entryDx=0;entryDy=0;entryPerimeter=0;fontColor=#FFFFFF;endArrow=classic;endFill=1;strokeColor=#FFFFFF;exitX=0.75;exitY=0;exitDx=0;exitDy=0;" parent="1" source="202" target="204" edge="1">
                    <mxGeometry relative="1" as="geometry">
                        <Array as="points">
                            <mxPoint x="1675" y="896"/>
                            <mxPoint x="1702" y="896"/>
                            <mxPoint x="1770" y="896"/>
                            <mxPoint x="1770" y="697"/>
                        </Array>
                    </mxGeometry>
                </mxCell>
                <mxCell id="241" value="save" style="edgeLabel;html=1;align=center;verticalAlign=middle;resizable=0;points=[];fontColor=#FFFFFF;" parent="205" vertex="1" connectable="0">
                    <mxGeometry x="-0.6693" y="-1" relative="1" as="geometry">
                        <mxPoint x="42" y="-172" as="offset"/>
                    </mxGeometry>
                </mxCell>
                <mxCell id="206" value="" style="group" parent="1" vertex="1" connectable="0">
                    <mxGeometry x="1621.5" y="163" width="177.5" height="90" as="geometry"/>
                </mxCell>
                <mxCell id="207" value="" style="group" parent="206" vertex="1" connectable="0">
                    <mxGeometry x="-6" width="183.5" height="90" as="geometry"/>
                </mxCell>
                <mxCell id="208" value="whalefin-statement" style="rounded=0;whiteSpace=wrap;html=1;" parent="207" vertex="1">
                    <mxGeometry x="23.5" y="30" width="160" height="60" as="geometry"/>
                </mxCell>
                <mxCell id="209" value="" style="sketch=0;html=1;dashed=0;whitespace=wrap;fillColor=#2875E2;strokeColor=#ffffff;points=[[0.005,0.63,0],[0.1,0.2,0],[0.9,0.2,0],[0.5,0,0],[0.995,0.63,0],[0.72,0.99,0],[0.5,1,0],[0.28,0.99,0]];shape=mxgraph.kubernetes.icon;prIcon=api;shadow=0;fontSize=12;" parent="207" vertex="1">
                    <mxGeometry width="50" height="48" as="geometry"/>
                </mxCell>
                <mxCell id="210" style="edgeStyle=none;html=1;entryX=0.5;entryY=1;entryDx=0;entryDy=0;fontColor=#FFFFFF;endArrow=classic;endFill=1;strokeColor=#FFFFFF;exitX=0.5;exitY=0;exitDx=0;exitDy=0;" parent="1" source="202" target="208" edge="1">
                    <mxGeometry relative="1" as="geometry">
                        <Array as="points">
                            <mxPoint x="1635" y="565"/>
                            <mxPoint x="1719" y="565"/>
                        </Array>
                    </mxGeometry>
                </mxCell>
                <mxCell id="215" value="get-statements&lt;br&gt;&amp;lt;createEndTime, createStartTime, ccy&amp;gt;&lt;br&gt;CURRENT_TERM_INTEREST" style="edgeLabel;html=1;align=center;verticalAlign=middle;resizable=0;points=[];fontColor=#FFFFFF;" parent="210" vertex="1" connectable="0">
                    <mxGeometry x="0.4225" y="-1" relative="1" as="geometry">
                        <mxPoint x="-85" y="238" as="offset"/>
                    </mxGeometry>
                </mxCell>
                <mxCell id="211" value="&lt;font style=&quot;font-size: 10px&quot;&gt;&lt;u&gt;AUM Balance Entries&lt;/u&gt;&lt;/font&gt;&lt;span style=&quot;font-size: 10px&quot;&gt;&lt;br&gt;[Currency] value_in_CeFi&lt;br&gt;&lt;/span&gt;" style="shape=note;size=20;whiteSpace=wrap;html=1;labelBackgroundColor=#2A2A2A;fontColor=#FFFFFF;dashed=1;" parent="1" vertex="1">
                    <mxGeometry x="560" y="885.98" width="138" height="77" as="geometry"/>
                </mxCell>
                <mxCell id="213" value="&lt;u style=&quot;font-size: 10px&quot;&gt;Deposit&lt;/u&gt;&lt;br&gt;&lt;br&gt;&lt;div style=&quot;text-align: left&quot;&gt;&lt;span style=&quot;font-size: 10px&quot;&gt;[{ &quot;status&quot;: &quot;COMPLETED&quot;, &lt;br&gt;&amp;nbsp; &amp;nbsp;&quot;id&quot;: &quot;k4WaVAwyQA&quot;,&lt;br&gt;&amp;nbsp; &amp;nbsp;&quot;amount&quot;: &quot;10.00000001&quot;,&lt;br&gt;&amp;nbsp; &amp;nbsp;&quot;chainProtocol&quot;: &quot;ERC20&quot;,&lt;br&gt;&amp;nbsp; &amp;nbsp;&quot;createdAt&quot;: &quot;2020-05-07T10:18:42Z&quot;,&lt;br&gt;&amp;nbsp; &amp;nbsp;&quot;ccy&quot;: &quot;BTC&quot; }]&lt;/span&gt;&lt;/div&gt;" style="shape=note;size=20;whiteSpace=wrap;html=1;labelBackgroundColor=#2A2A2A;fontColor=#FFFFFF;dashed=1;" parent="1" vertex="1">
                    <mxGeometry x="1131.5" y="1120" width="201" height="127" as="geometry"/>
                </mxCell>
                <mxCell id="216" value="&lt;u style=&quot;font-size: 10px&quot;&gt;Yields&lt;br&gt;&lt;/u&gt;&lt;br&gt;&lt;div style=&quot;text-align: left&quot;&gt;&lt;span style=&quot;font-size: 10px&quot;&gt;&amp;nbsp;[&amp;nbsp;&lt;/span&gt;&lt;span style=&quot;font-size: 10px&quot;&gt;{ &quot;currentBalance&quot;: &quot;100020.5220509766&quot;,&lt;/span&gt;&lt;/div&gt;&lt;span style=&quot;font-size: 10px&quot;&gt;&lt;div style=&quot;text-align: left&quot;&gt;&amp;nbsp; &amp;nbsp; &amp;nbsp;&quot;previousBalance&quot;: &quot;100010.685&quot;,&lt;/div&gt;&lt;/span&gt;&lt;span style=&quot;font-size: 10px&quot;&gt;&lt;div style=&quot;text-align: left&quot;&gt;&amp;nbsp; &amp;nbsp; &amp;nbsp;&quot;ccy&quot;: &quot;USD&quot;,&lt;/div&gt;&lt;div style=&quot;text-align: left&quot;&gt;&amp;nbsp; &amp;nbsp; &amp;nbsp;&quot;diff&quot;: &quot;9.8370509766&quot;, &lt;br&gt;&amp;nbsp; &amp;nbsp; &amp;nbsp;&quot;direction&quot;: &quot;IN&quot;,&amp;nbsp; &amp;nbsp; &amp;nbsp; &amp;nbsp; &lt;br&gt;&amp;nbsp; &amp;nbsp; &amp;nbsp;&quot;type&quot;: &quot;CURRENT_TERM_INTEREST&quot;,&amp;nbsp; &amp;nbsp; &amp;nbsp; &amp;nbsp; &amp;nbsp; &amp;nbsp; &amp;nbsp; &amp;nbsp; &amp;nbsp;&quot;createdAt&quot;: &quot;2022-03-10T08:04:14.935Z&quot; }]&lt;/div&gt;&lt;/span&gt;" style="shape=note;size=20;whiteSpace=wrap;html=1;labelBackgroundColor=#2A2A2A;fontColor=#FFFFFF;dashed=1;" parent="1" vertex="1">
                    <mxGeometry x="2067" y="989" width="229" height="162" as="geometry"/>
                </mxCell>
                <mxCell id="219" value="" style="rounded=0;whiteSpace=wrap;html=1;dashed=1;fontColor=#FFFFFF;align=left;" parent="1" vertex="1">
                    <mxGeometry x="281" y="783" width="135" height="15" as="geometry"/>
                </mxCell>
                <mxCell id="234" value="" style="group" parent="1" vertex="1" connectable="0">
                    <mxGeometry x="1727" y="1268" width="177.5" height="90" as="geometry"/>
                </mxCell>
                <mxCell id="235" value="bitso-whalefin-yield-calc" style="rounded=0;whiteSpace=wrap;html=1;" parent="234" vertex="1">
                    <mxGeometry x="17.5" y="30" width="160" height="60" as="geometry"/>
                </mxCell>
                <mxCell id="236" value="" style="verticalLabelPosition=bottom;html=1;verticalAlign=top;align=center;strokeColor=none;fillColor=#00BEF2;shape=mxgraph.azure.startup_task;pointerEvents=1;labelBackgroundColor=#2A2A2A;fontColor=#FFFFFF;gradientColor=none;shadow=0;" parent="234" vertex="1">
                    <mxGeometry width="47.5" height="50" as="geometry"/>
                </mxCell>
                <mxCell id="378" style="edgeStyle=none;html=1;entryX=0.5;entryY=0;entryDx=0;entryDy=0;fontSize=12;endArrow=classic;endFill=1;" parent="1" source="239" target="235" edge="1">
                    <mxGeometry relative="1" as="geometry">
                        <Array as="points">
                            <mxPoint x="1935" y="1154"/>
                            <mxPoint x="1825" y="1154"/>
                        </Array>
                    </mxGeometry>
                </mxCell>
                <mxCell id="239" value="" style="shape=message;html=1;whiteSpace=wrap;html=1;outlineConnect=0;fontColor=#FFFFFF;" parent="1" vertex="1">
                    <mxGeometry x="1904.5" y="1056" width="60" height="40" as="geometry"/>
                </mxCell>
                <mxCell id="261" value="&lt;span style=&quot;color: rgb(240 , 240 , 240)&quot;&gt;&lt;font style=&quot;font-size: 10px&quot;&gt;Interest of Flexible Earn will be distributed at 16:00 (UTC+8) daily and starts accruing once credited to your wallet&lt;/font&gt;&lt;/span&gt;" style="shape=note;size=20;whiteSpace=wrap;html=1;labelBackgroundColor=#2A2A2A;fontColor=#FFFFFF;dashed=1;" parent="1" vertex="1">
                    <mxGeometry x="1966" y="174.25" width="240" height="97.5" as="geometry"/>
                </mxCell>
                <mxCell id="281" style="edgeStyle=none;html=1;entryX=0;entryY=0.5;entryDx=0;entryDy=0;entryPerimeter=0;fontSize=10;fontColor=#FFFFFF;startArrow=none;startFill=0;endArrow=none;endFill=0;strokeColor=#FFFFFF;dashed=1;" parent="1" source="208" target="261" edge="1">
                    <mxGeometry relative="1" as="geometry"/>
                </mxCell>
                <mxCell id="304" value="&lt;font color=&quot;#ffffff&quot;&gt;whalefin-wallet-interest&lt;/font&gt;" style="sketch=0;points=[[0,0,0],[0.25,0,0],[0.5,0,0],[0.75,0,0],[1,0,0],[0,1,0],[0.25,1,0],[0.5,1,0],[0.75,1,0],[1,1,0],[0,0.25,0],[0,0.5,0],[0,0.75,0],[1,0.25,0],[1,0.5,0],[1,0.75,0]];outlineConnect=0;fontColor=#232F3E;gradientColor=#4D72F3;gradientDirection=north;fillColor=#3334B9;strokeColor=#ffffff;dashed=0;verticalLabelPosition=bottom;verticalAlign=top;align=center;html=1;fontSize=12;fontStyle=0;aspect=fixed;shape=mxgraph.aws4.resourceIcon;resIcon=mxgraph.aws4.aurora;" parent="1" vertex="1">
                    <mxGeometry x="2230" y="1604" width="66" height="66" as="geometry"/>
                </mxCell>
                <mxCell id="321" style="edgeStyle=none;html=1;entryX=0;entryY=0.5;entryDx=0;entryDy=0;entryPerimeter=0;fontSize=10;fontColor=#FFFFFF;startArrow=none;startFill=0;endArrow=classic;endFill=1;startSize=6;endSize=6;strokeColor=#FFFFFF;strokeWidth=1;exitX=0.5;exitY=1;exitDx=0;exitDy=0;" parent="1" source="392" target="304" edge="1">
                    <mxGeometry relative="1" as="geometry">
                        <Array as="points">
                            <mxPoint x="2037" y="1637"/>
                            <mxPoint x="2090" y="1637"/>
                        </Array>
                        <mxPoint x="1995.5953470633103" y="1699.1699999999996" as="sourcePoint"/>
                    </mxGeometry>
                </mxCell>
                <mxCell id="323" value="save" style="edgeLabel;html=1;align=center;verticalAlign=middle;resizable=0;points=[];fontSize=10;fontColor=#FFFFFF;" parent="321" vertex="1" connectable="0">
                    <mxGeometry x="0.1872" y="-2" relative="1" as="geometry">
                        <mxPoint x="-34" y="-60" as="offset"/>
                    </mxGeometry>
                </mxCell>
                <mxCell id="350" style="edgeStyle=none;html=1;entryX=0.5;entryY=0;entryDx=0;entryDy=0;fontSize=10;fontColor=#FFFFFF;startArrow=none;startFill=0;endArrow=none;endFill=0;startSize=6;endSize=6;strokeColor=#FFFFFF;strokeWidth=1;dashed=1;" parent="1" target="349" edge="1">
                    <mxGeometry relative="1" as="geometry">
                        <mxPoint x="2742" y="1541.9999999999995" as="sourcePoint"/>
                    </mxGeometry>
                </mxCell>
                <mxCell id="367" value="" style="rounded=0;whiteSpace=wrap;html=1;dashed=1;fontColor=#FFFFFF;align=left;" parent="1" vertex="1">
                    <mxGeometry x="416" y="760.48" width="135" height="15" as="geometry"/>
                </mxCell>
                <mxCell id="368" value="" style="endArrow=none;dashed=1;html=1;strokeColor=#FFFFFF;" parent="1" edge="1">
                    <mxGeometry width="50" height="50" relative="1" as="geometry">
                        <mxPoint x="1417" y="2164" as="sourcePoint"/>
                        <mxPoint x="1417" y="19" as="targetPoint"/>
                    </mxGeometry>
                </mxCell>
                <mxCell id="369" value="" style="rounded=0;whiteSpace=wrap;html=1;dashed=1;fontColor=#FFFFFF;align=left;" parent="1" vertex="1">
                    <mxGeometry x="891" y="783" width="135" height="15" as="geometry"/>
                </mxCell>
                <mxCell id="370" value="" style="rounded=0;whiteSpace=wrap;html=1;dashed=1;fontColor=#FFFFFF;align=left;" parent="1" vertex="1">
                    <mxGeometry x="1026" y="763.48" width="135" height="15" as="geometry"/>
                </mxCell>
                <mxCell id="371" value="" style="endArrow=none;dashed=1;html=1;strokeColor=#FFFFFF;" parent="1" edge="1">
                    <mxGeometry width="50" height="50" relative="1" as="geometry">
                        <mxPoint x="2337" y="2164" as="sourcePoint"/>
                        <mxPoint x="2337" y="19" as="targetPoint"/>
                    </mxGeometry>
                </mxCell>
                <mxCell id="372" value="" style="rounded=0;whiteSpace=wrap;html=1;dashed=1;fontColor=#FFFFFF;align=left;" parent="1" vertex="1">
                    <mxGeometry x="1565" y="783" width="135" height="15" as="geometry"/>
                </mxCell>
                <mxCell id="373" value="" style="rounded=0;whiteSpace=wrap;html=1;dashed=1;fontColor=#FFFFFF;align=left;" parent="1" vertex="1">
                    <mxGeometry x="1700" y="763.48" width="135" height="15" as="geometry"/>
                </mxCell>
                <mxCell id="377" style="edgeStyle=none;html=1;fontSize=12;endArrow=none;endFill=0;exitX=0.75;exitY=1;exitDx=0;exitDy=0;entryX=0.5;entryY=0;entryDx=0;entryDy=0;" parent="1" source="374" target="239" edge="1">
                    <mxGeometry relative="1" as="geometry">
                        <mxPoint x="1936" y="1056" as="targetPoint"/>
                    </mxGeometry>
                </mxCell>
                <mxCell id="382" value="&lt;span style=&quot;color: rgb(255 , 255 , 255) ; font-family: &amp;#34;helvetica&amp;#34; ; font-size: 11px&quot;&gt;invoke-yield-distribution&lt;/span&gt;" style="edgeLabel;html=1;align=center;verticalAlign=middle;resizable=0;points=[];fontSize=12;" parent="377" vertex="1" connectable="0">
                    <mxGeometry x="-0.2355" y="1" relative="1" as="geometry">
                        <mxPoint y="16" as="offset"/>
                    </mxGeometry>
                </mxCell>
                <mxCell id="374" value="" style="rounded=0;whiteSpace=wrap;html=1;dashed=1;fontColor=#FFFFFF;align=left;" parent="1" vertex="1">
                    <mxGeometry x="1835" y="740.98" width="135" height="15" as="geometry"/>
                </mxCell>
                <mxCell id="376" style="edgeStyle=none;html=1;entryX=0.25;entryY=1;entryDx=0;entryDy=0;fontSize=12;exitX=1;exitY=0.5;exitDx=0;exitDy=0;endArrow=none;endFill=0;" parent="1" source="202" target="374" edge="1">
                    <mxGeometry relative="1" as="geometry">
                        <Array as="points">
                            <mxPoint x="1869" y="999"/>
                        </Array>
                    </mxGeometry>
                </mxCell>
                <mxCell id="385" style="edgeStyle=none;html=1;fontSize=12;endArrow=classic;endFill=1;" parent="1" source="383" edge="1">
                    <mxGeometry relative="1" as="geometry">
                        <mxPoint x="1617" y="1643" as="targetPoint"/>
                    </mxGeometry>
                </mxCell>
                <mxCell id="387" value="&lt;span style=&quot;color: rgb(255 , 255 , 255) ; font-size: 11px&quot;&gt;get-deposits&lt;/span&gt;&lt;br style=&quot;color: rgb(255 , 255 , 255) ; font-size: 11px&quot;&gt;&lt;span style=&quot;color: rgb(255 , 255 , 255) ; font-size: 11px&quot;&gt;COMPLETED&lt;/span&gt;" style="edgeLabel;html=1;align=center;verticalAlign=middle;resizable=0;points=[];fontSize=12;" parent="385" vertex="1" connectable="0">
                    <mxGeometry x="-0.4758" relative="1" as="geometry">
                        <mxPoint y="30" as="offset"/>
                    </mxGeometry>
                </mxCell>
                <mxCell id="383" value="" style="rounded=0;whiteSpace=wrap;html=1;dashed=1;fontColor=#FFFFFF;align=left;" parent="1" vertex="1">
                    <mxGeometry x="1549.25" y="1453" width="135" height="15" as="geometry"/>
                </mxCell>
                <mxCell id="384" style="edgeStyle=none;html=1;entryX=0.5;entryY=0;entryDx=0;entryDy=0;fontSize=12;endArrow=none;endFill=0;exitX=0;exitY=0.5;exitDx=0;exitDy=0;" parent="1" source="235" target="383" edge="1">
                    <mxGeometry relative="1" as="geometry">
                        <Array as="points">
                            <mxPoint x="1617" y="1328"/>
                        </Array>
                    </mxGeometry>
                </mxCell>
                <mxCell id="388" value="" style="group" parent="1" vertex="1" connectable="0">
                    <mxGeometry x="1479" y="1594" width="217.5" height="90" as="geometry"/>
                </mxCell>
                <mxCell id="289" value="" style="group" parent="388" vertex="1" connectable="0">
                    <mxGeometry x="40" width="177.5" height="90" as="geometry"/>
                </mxCell>
                <mxCell id="290" value="bitso-whalefin-deposit" style="rounded=0;whiteSpace=wrap;html=1;" parent="289" vertex="1">
                    <mxGeometry x="17.5" y="30" width="160" height="60" as="geometry"/>
                </mxCell>
                <mxCell id="291" value="" style="verticalLabelPosition=bottom;html=1;verticalAlign=top;align=center;strokeColor=none;fillColor=#00BEF2;shape=mxgraph.azure.startup_task;pointerEvents=1;labelBackgroundColor=#2A2A2A;fontColor=#FFFFFF;gradientColor=none;shadow=0;" parent="289" vertex="1">
                    <mxGeometry width="47.5" height="50" as="geometry"/>
                </mxCell>
                <mxCell id="338" value="" style="sketch=0;html=1;dashed=0;whitespace=wrap;fillColor=#2875E2;strokeColor=#ffffff;points=[[0.005,0.63,0],[0.1,0.2,0],[0.9,0.2,0],[0.5,0,0],[0.995,0.63,0],[0.72,0.99,0],[0.5,1,0],[0.28,0.99,0]];shape=mxgraph.kubernetes.icon;prIcon=api;fontSize=10;fontColor=#FFFFFF;" parent="388" vertex="1">
                    <mxGeometry y="26" width="50" height="48" as="geometry"/>
                </mxCell>
                <mxCell id="389" value="" style="group" parent="1" vertex="1" connectable="0">
                    <mxGeometry x="1489" y="1895" width="216.5" height="90" as="geometry"/>
                </mxCell>
                <mxCell id="292" value="" style="group" parent="389" vertex="1" connectable="0">
                    <mxGeometry x="39" width="177.5" height="90" as="geometry"/>
                </mxCell>
                <mxCell id="293" value="bitso-whalefin-ownership" style="rounded=0;whiteSpace=wrap;html=1;" parent="292" vertex="1">
                    <mxGeometry x="17.5" y="30" width="160" height="60" as="geometry"/>
                </mxCell>
                <mxCell id="294" value="" style="verticalLabelPosition=bottom;html=1;verticalAlign=top;align=center;strokeColor=none;fillColor=#00BEF2;shape=mxgraph.azure.startup_task;pointerEvents=1;labelBackgroundColor=#2A2A2A;fontColor=#FFFFFF;gradientColor=none;shadow=0;" parent="292" vertex="1">
                    <mxGeometry width="47.5" height="50" as="geometry"/>
                </mxCell>
                <mxCell id="339" value="" style="sketch=0;html=1;dashed=0;whitespace=wrap;fillColor=#2875E2;strokeColor=#ffffff;points=[[0.005,0.63,0],[0.1,0.2,0],[0.9,0.2,0],[0.5,0,0],[0.995,0.63,0],[0.72,0.99,0],[0.5,1,0],[0.28,0.99,0]];shape=mxgraph.kubernetes.icon;prIcon=api;fontSize=10;fontColor=#FFFFFF;" parent="389" vertex="1">
                    <mxGeometry y="21" width="50" height="48" as="geometry"/>
                </mxCell>
                <mxCell id="394" style="edgeStyle=none;html=1;entryX=0.5;entryY=0;entryDx=0;entryDy=0;fontSize=12;endArrow=classic;endFill=1;" parent="1" source="390" target="293" edge="1">
                    <mxGeometry relative="1" as="geometry">
                        <Array as="points">
                            <mxPoint x="1757" y="1821"/>
                            <mxPoint x="1626" y="1821"/>
                        </Array>
                    </mxGeometry>
                </mxCell>
                <mxCell id="395" value="&lt;span style=&quot;color: rgba(0 , 0 , 0 , 0) ; font-family: monospace ; font-size: 0px&quot;&gt;%3CmxGraphModel%3E%3Croot%3E%3CmxCell%20id%3D%220%22%2F%3E%3CmxCell%20id%3D%221%22%20parent%3D%220%22%2F%3E%3CmxCell%20id%3D%222%22%20value%3D%22get-related-deposits%22%20style%3D%22edgeLabel%3Bhtml%3D1%3Balign%3Dcenter%3BverticalAlign%3Dmiddle%3Bresizable%3D0%3Bpoints%3D%5B%5D%3BfontColor%3D%23FFFFFF%3B%22%20vertex%3D%221%22%20connectable%3D%220%22%20parent%3D%221%22%3E%3CmxGeometry%20x%3D%221811%22%20y%3D%221701.4999999999995%22%20as%3D%22geometry%22%2F%3E%3C%2FmxCell%3E%3C%2Froot%3E%3C%2FmxGraphModel%3&lt;/span&gt;&lt;span style=&quot;color: rgba(0 , 0 , 0 , 0) ; font-family: monospace ; font-size: 0px&quot;&gt;%3CmxGraphModel%3E%3Croot%3E%3CmxCell%20id%3D%220%22%2F%3E%3CmxCell%20id%3D%221%22%20parent%3D%220%22%2F%3E%3CmxCell%20id%3D%222%22%20value%3D%22get-related-deposits%22%20style%3D%22edgeLabel%3Bhtml%3D1%3Balign%3Dcenter%3BverticalAlign%3Dmiddle%3Bresizable%3D0%3Bpoints%3D%5B%5D%3BfontColor%3D%23FFFFFF%3B%22%20vertex%3D%221%22%20connectable%3D%220%22%20parent%3D%221%22%3E%3CmxGeometry%20x%3D%221811%22%20y%3D%221701.4999999999995%22%20as%3D%22geometry%22%2F%3E%3C%2FmxCell%3E%3C%2Froot%3E%3C%2FmxGraphModel%3E&lt;/span&gt;" style="edgeLabel;html=1;align=center;verticalAlign=middle;resizable=0;points=[];fontSize=12;" parent="394" vertex="1" connectable="0">
                    <mxGeometry x="-0.5611" relative="1" as="geometry">
                        <mxPoint as="offset"/>
                    </mxGeometry>
                </mxCell>
                <mxCell id="396" value="&lt;span style=&quot;color: rgb(255 , 255 , 255) ; font-size: 11px&quot;&gt;get-related-deposits&lt;/span&gt;" style="edgeLabel;html=1;align=center;verticalAlign=middle;resizable=0;points=[];fontSize=12;" parent="394" vertex="1" connectable="0">
                    <mxGeometry x="-0.6358" relative="1" as="geometry">
                        <mxPoint y="-47" as="offset"/>
                    </mxGeometry>
                </mxCell>
                <mxCell id="390" value="" style="rounded=0;whiteSpace=wrap;html=1;dashed=1;fontColor=#FFFFFF;align=left;" parent="1" vertex="1">
                    <mxGeometry x="1689.25" y="1473" width="135" height="15" as="geometry"/>
                </mxCell>
                <mxCell id="391" value="" style="rounded=0;whiteSpace=wrap;html=1;dashed=1;fontColor=#FFFFFF;align=left;" parent="1" vertex="1">
                    <mxGeometry x="1829.25" y="1493" width="135" height="15" as="geometry"/>
                </mxCell>
                <mxCell id="392" value="" style="rounded=0;whiteSpace=wrap;html=1;dashed=1;fontColor=#FFFFFF;align=left;" parent="1" vertex="1">
                    <mxGeometry x="1969.25" y="1513" width="135" height="15" as="geometry"/>
                </mxCell>
                <mxCell id="393" style="edgeStyle=none;html=1;entryX=0.5;entryY=0;entryDx=0;entryDy=0;fontSize=12;endArrow=none;endFill=0;exitX=0.25;exitY=1;exitDx=0;exitDy=0;" parent="1" source="235" target="390" edge="1">
                    <mxGeometry relative="1" as="geometry">
                        <Array as="points">
                            <mxPoint x="1785" y="1418"/>
                            <mxPoint x="1757" y="1418"/>
                        </Array>
                    </mxGeometry>
                </mxCell>
                <mxCell id="397" style="edgeStyle=none;html=1;entryX=0.5;entryY=0;entryDx=0;entryDy=0;fontSize=12;endArrow=none;endFill=0;exitX=0.75;exitY=1;exitDx=0;exitDy=0;" parent="1" source="235" target="391" edge="1">
                    <mxGeometry relative="1" as="geometry">
                        <Array as="points">
                            <mxPoint x="1865" y="1426"/>
                            <mxPoint x="1897" y="1426"/>
                        </Array>
                    </mxGeometry>
                </mxCell>
                <mxCell id="400" style="edgeStyle=none;html=1;entryX=0.5;entryY=0;entryDx=0;entryDy=0;fontSize=12;endArrow=none;endFill=0;" parent="1" source="235" target="392" edge="1">
                    <mxGeometry relative="1" as="geometry">
                        <Array as="points">
                            <mxPoint x="2037" y="1328"/>
                        </Array>
                    </mxGeometry>
                </mxCell>
                <mxCell id="401" value="" style="group" parent="1" vertex="1" connectable="0">
                    <mxGeometry x="2400" y="854" width="243" height="176" as="geometry"/>
                </mxCell>
                <mxCell id="328" value="" style="sketch=0;html=1;aspect=fixed;strokeColor=none;shadow=0;align=center;verticalAlign=top;fillColor=#3B8DF1;shape=mxgraph.gcp2.clock" parent="401" vertex="1">
                    <mxGeometry width="45" height="45" as="geometry"/>
                </mxCell>
                <mxCell id="329" value="" style="group" parent="401" vertex="1" connectable="0">
                    <mxGeometry x="45" y="86" width="198" height="90" as="geometry"/>
                </mxCell>
                <mxCell id="330" value="bitso-whalefin-yield-distribute" style="rounded=0;whiteSpace=wrap;html=1;" parent="329" vertex="1">
                    <mxGeometry x="17.5" y="30" width="180.5" height="60" as="geometry"/>
                </mxCell>
                <mxCell id="331" value="" style="verticalLabelPosition=bottom;html=1;verticalAlign=top;align=center;strokeColor=none;fillColor=#00BEF2;shape=mxgraph.azure.startup_task;pointerEvents=1;labelBackgroundColor=#2A2A2A;fontColor=#FFFFFF;gradientColor=none;shadow=0;" parent="329" vertex="1">
                    <mxGeometry width="47.5" height="50" as="geometry"/>
                </mxCell>
                <mxCell id="327" style="edgeStyle=none;html=1;entryX=0;entryY=0.5;entryDx=0;entryDy=0;fontColor=#FFFFFF;endArrow=classic;endFill=1;strokeColor=#FFFFFF;" parent="401" source="328" target="330" edge="1">
                    <mxGeometry relative="1" as="geometry">
                        <Array as="points">
                            <mxPoint x="23" y="98"/>
                            <mxPoint x="23" y="146"/>
                        </Array>
                    </mxGeometry>
                </mxCell>
                <mxCell id="402" value="" style="group" parent="1" vertex="1" connectable="0">
                    <mxGeometry x="2375" y="1517" width="215.5" height="90" as="geometry"/>
                </mxCell>
                <mxCell id="332" value="" style="group" parent="402" vertex="1" connectable="0">
                    <mxGeometry x="38" width="177.5" height="90" as="geometry"/>
                </mxCell>
                <mxCell id="333" value="bitso-whalefin-yield-calc" style="rounded=0;whiteSpace=wrap;html=1;" parent="332" vertex="1">
                    <mxGeometry x="17.5" y="30" width="160" height="60" as="geometry"/>
                </mxCell>
                <mxCell id="334" value="" style="verticalLabelPosition=bottom;html=1;verticalAlign=top;align=center;strokeColor=none;fillColor=#00BEF2;shape=mxgraph.azure.startup_task;pointerEvents=1;labelBackgroundColor=#2A2A2A;fontColor=#FFFFFF;gradientColor=none;shadow=0;" parent="332" vertex="1">
                    <mxGeometry width="47.5" height="50" as="geometry"/>
                </mxCell>
                <mxCell id="340" value="" style="sketch=0;html=1;dashed=0;whitespace=wrap;fillColor=#2875E2;strokeColor=#ffffff;points=[[0.005,0.63,0],[0.1,0.2,0],[0.9,0.2,0],[0.5,0,0],[0.995,0.63,0],[0.72,0.99,0],[0.5,1,0],[0.28,0.99,0]];shape=mxgraph.kubernetes.icon;prIcon=api;fontSize=10;fontColor=#FFFFFF;" parent="402" vertex="1">
                    <mxGeometry y="21" width="50" height="48" as="geometry"/>
                </mxCell>
                <mxCell id="406" style="edgeStyle=none;html=1;entryX=0.5;entryY=0;entryDx=0;entryDy=0;fontSize=12;endArrow=classic;endFill=1;" parent="1" source="403" target="333" edge="1">
                    <mxGeometry relative="1" as="geometry"/>
                </mxCell>
                <mxCell id="407" value="&lt;span style=&quot;color: rgb(255 , 255 , 255) ; font-size: 10px&quot;&gt;get-whalefin-yields&lt;/span&gt;" style="edgeLabel;html=1;align=center;verticalAlign=middle;resizable=0;points=[];fontSize=12;" parent="406" vertex="1" connectable="0">
                    <mxGeometry x="0.3273" y="-1" relative="1" as="geometry">
                        <mxPoint x="-4" y="-109" as="offset"/>
                    </mxGeometry>
                </mxCell>
                <mxCell id="403" value="" style="rounded=0;whiteSpace=wrap;html=1;dashed=1;fontColor=#FFFFFF;align=left;" parent="1" vertex="1">
                    <mxGeometry x="2441" y="1183" width="135" height="15" as="geometry"/>
                </mxCell>
                <mxCell id="404" style="edgeStyle=none;html=1;entryX=0.5;entryY=0;entryDx=0;entryDy=0;fontSize=12;endArrow=none;endFill=0;exitX=0.25;exitY=1;exitDx=0;exitDy=0;" parent="1" source="330" target="403" edge="1">
                    <mxGeometry relative="1" as="geometry"/>
                </mxCell>
                <mxCell id="408" value="" style="rounded=0;whiteSpace=wrap;html=1;dashed=1;fontColor=#FFFFFF;align=left;" parent="1" vertex="1">
                    <mxGeometry x="2579" y="1205" width="135" height="15" as="geometry"/>
                </mxCell>
                <mxCell id="409" style="edgeStyle=none;html=1;entryX=0.5;entryY=0;entryDx=0;entryDy=0;fontSize=12;endArrow=none;endFill=0;exitX=0.75;exitY=1;exitDx=0;exitDy=0;" parent="1" source="330" target="408" edge="1">
                    <mxGeometry relative="1" as="geometry">
                        <Array as="points">
                            <mxPoint x="2598" y="1114"/>
                            <mxPoint x="2647" y="1114"/>
                        </Array>
                    </mxGeometry>
                </mxCell>
                <mxCell id="414" value="" style="group" parent="1" vertex="1" connectable="0">
                    <mxGeometry x="2956" y="1668" width="174.5" height="298" as="geometry"/>
                </mxCell>
                <mxCell id="357" value="" style="html=1;points=[];perimeter=orthogonalPerimeter;shadow=0;dashed=1;fontSize=10;gradientColor=none;" parent="414" vertex="1">
                    <mxGeometry width="174.5" height="298" as="geometry"/>
                </mxCell>
                <mxCell id="358" value="&lt;font&gt;CCY User #X Wallet&amp;nbsp;&lt;/font&gt;" style="aspect=fixed;perimeter=ellipsePerimeter;html=1;align=center;shadow=0;dashed=0;fontColor=#FFFFFF;labelBackgroundColor=#ffffff;fontSize=12;spacingTop=3;image;image=img/lib/ibm/blockchain/wallet.svg;" parent="414" vertex="1">
                    <mxGeometry x="57.25" y="191" width="60" height="60" as="geometry"/>
                </mxCell>
                <mxCell id="359" value="&lt;span style=&quot;background-color: rgb(42 , 42 , 42)&quot;&gt;CCY Bitso Wallet&lt;/span&gt;" style="html=1;verticalLabelPosition=bottom;align=center;labelBackgroundColor=#ffffff;verticalAlign=top;strokeWidth=2;strokeColor=#0080F0;shadow=0;dashed=0;shape=mxgraph.ios7.icons.wallet;fontColor=#FFFFFF;" parent="414" vertex="1">
                    <mxGeometry x="52.25" y="63.67000000000007" width="70" height="56" as="geometry"/>
                </mxCell>
                <mxCell id="360" style="edgeStyle=none;html=1;fontColor=#FFFFFF;endArrow=none;endFill=0;strokeColor=#FFFFFF;startArrow=classic;startFill=1;" parent="414" source="358" target="359" edge="1">
                    <mxGeometry relative="1" as="geometry"/>
                </mxCell>
                <mxCell id="361" value="&amp;lt;DoBitsoThings&amp;gt;" style="edgeLabel;html=1;align=center;verticalAlign=middle;resizable=0;points=[];fontColor=#FFFFFF;" parent="414" vertex="1" connectable="0">
                    <mxGeometry x="88.25" y="27.43478260869574" as="geometry"/>
                </mxCell>
                <mxCell id="415" value="&lt;blockquote style=&quot;margin: 0 0 0 40px ; border: none ; padding: 0px&quot;&gt;&lt;br&gt;&lt;/blockquote&gt;" style="outlineConnect=0;dashed=0;verticalLabelPosition=bottom;verticalAlign=top;align=left;html=1;shape=mxgraph.aws3.api_gateway;fillColor=#D9A741;gradientColor=none;" parent="1" vertex="1">
                    <mxGeometry x="421" y="392" width="51.82" height="63" as="geometry"/>
                </mxCell>
                <mxCell id="423" value="&lt;i&gt;/api/v2/asset/balance&lt;/i&gt;" style="verticalLabelPosition=bottom;html=1;verticalAlign=top;align=left;strokeColor=none;fillColor=#00BEF2;shape=mxgraph.azure.service_endpoint;" parent="1" vertex="1">
                    <mxGeometry x="477" y="247" width="50" height="20" as="geometry"/>
                </mxCell>
                <mxCell id="424" value="&lt;i&gt;https://be.whalefin.com/&lt;/i&gt;" style="text;html=1;strokeColor=none;fillColor=none;align=center;verticalAlign=middle;whiteSpace=wrap;rounded=0;" parent="1" vertex="1">
                    <mxGeometry x="477" y="408.5" width="141" height="30" as="geometry"/>
                </mxCell>
                <mxCell id="427" value="&lt;i&gt;/api/v2/wallet/deposits&lt;/i&gt;" style="verticalLabelPosition=bottom;html=1;verticalAlign=top;align=left;strokeColor=none;fillColor=#00BEF2;shape=mxgraph.azure.service_endpoint;" parent="1" vertex="1">
                    <mxGeometry x="1090.25" y="251" width="50" height="20" as="geometry"/>
                </mxCell>
                <mxCell id="428" value="&lt;i&gt;/api/v2/asset/statement&lt;/i&gt;" style="verticalLabelPosition=bottom;html=1;verticalAlign=top;align=left;strokeColor=none;fillColor=#00BEF2;shape=mxgraph.azure.service_endpoint;" parent="1" vertex="1">
                    <mxGeometry x="1747" y="256" width="50" height="20" as="geometry"/>
                </mxCell>
                <mxCell id="429" value="&lt;blockquote style=&quot;margin: 0 0 0 40px ; border: none ; padding: 0px&quot;&gt;&lt;br&gt;&lt;/blockquote&gt;" style="outlineConnect=0;dashed=0;verticalLabelPosition=bottom;verticalAlign=top;align=left;html=1;shape=mxgraph.aws3.api_gateway;fillColor=#D9A741;gradientColor=none;" parent="1" vertex="1">
                    <mxGeometry x="1033" y="392" width="51.82" height="63" as="geometry"/>
                </mxCell>
                <mxCell id="430" value="&lt;i&gt;https://be.whalefin.com/&lt;/i&gt;" style="text;html=1;strokeColor=none;fillColor=none;align=center;verticalAlign=middle;whiteSpace=wrap;rounded=0;" parent="1" vertex="1">
                    <mxGeometry x="1089" y="408.5" width="141" height="30" as="geometry"/>
                </mxCell>
                <mxCell id="433" value="&lt;blockquote style=&quot;margin: 0 0 0 40px ; border: none ; padding: 0px&quot;&gt;&lt;br&gt;&lt;/blockquote&gt;" style="outlineConnect=0;dashed=0;verticalLabelPosition=bottom;verticalAlign=top;align=left;html=1;shape=mxgraph.aws3.api_gateway;fillColor=#D9A741;gradientColor=none;" parent="1" vertex="1">
                    <mxGeometry x="1692" y="392" width="51.82" height="63" as="geometry"/>
                </mxCell>
                <mxCell id="434" value="&lt;i&gt;https://be.whalefin.com/&lt;/i&gt;" style="text;html=1;strokeColor=none;fillColor=none;align=center;verticalAlign=middle;whiteSpace=wrap;rounded=0;" parent="1" vertex="1">
                    <mxGeometry x="1748" y="408.5" width="141" height="30" as="geometry"/>
                </mxCell>
                <mxCell id="435" value="&lt;span style=&quot;font-size: 10px&quot;&gt;&lt;br&gt;&lt;/span&gt;" style="rounded=0;whiteSpace=wrap;html=1;dashed=1;fontColor=#FFFFFF;align=left;" parent="1" vertex="1">
                    <mxGeometry x="2633" y="1481" width="228" height="280" as="geometry"/>
                </mxCell>
                <mxCell id="349" value="&lt;span style=&quot;font-size: 10px&quot;&gt;&lt;span style=&quot;white-space: pre&quot;&gt; &lt;/span&gt;user_each&lt;/span&gt;&lt;span style=&quot;font-size: 10px&quot;&gt;&lt;br&gt;&lt;span&gt; &lt;/span&gt;&lt;span&gt; &lt;span&gt; &lt;/span&gt;&lt;/span&gt;&lt;span&gt; &lt;span&gt; &lt;/span&gt;&lt;/span&gt;&lt;span style=&quot;white-space: pre&quot;&gt; &lt;/span&gt;&lt;span style=&quot;white-space: pre&quot;&gt; &lt;/span&gt;&lt;b&gt;user_pending_iba_fee&lt;/b&gt;[X]&lt;br&gt;&lt;span&gt; &lt;/span&gt;&lt;br&gt;&lt;span&gt; &lt;/span&gt;&lt;span style=&quot;white-space: pre&quot;&gt; &lt;/span&gt;&lt;b&gt;bitso_pending_iba_fee&lt;/b&gt;&lt;/span&gt;&lt;span style=&quot;font-size: 10px&quot;&gt;&lt;br&gt;&lt;/span&gt;" style="rounded=0;whiteSpace=wrap;html=1;dashed=1;fontColor=#FFFFFF;align=left;" parent="1" vertex="1">
                    <mxGeometry x="2651.5" y="1640" width="181" height="83" as="geometry"/>
                </mxCell>
                <mxCell id="362" style="edgeStyle=none;html=1;fontSize=10;fontColor=#FFFFFF;startArrow=none;startFill=0;endArrow=classic;endFill=1;startSize=6;endSize=6;strokeColor=#FFFFFF;strokeWidth=1;exitX=1;exitY=0.25;exitDx=0;exitDy=0;" parent="1" source="435" target="357" edge="1">
                    <mxGeometry relative="1" as="geometry">
                        <mxPoint x="2772" y="1522.0081769268927" as="sourcePoint"/>
                        <mxPoint x="2953" y="1551" as="targetPoint"/>
                        <Array as="points">
                            <mxPoint x="3043" y="1551"/>
                        </Array>
                    </mxGeometry>
                </mxCell>
                <mxCell id="410" style="edgeStyle=none;html=1;entryX=0.5;entryY=0;entryDx=0;entryDy=0;fontSize=12;endArrow=classic;endFill=1;" parent="1" source="408" target="435" edge="1">
                    <mxGeometry relative="1" as="geometry">
                        <Array as="points">
                            <mxPoint x="2647" y="1388"/>
                            <mxPoint x="2747" y="1388"/>
                        </Array>
                        <mxPoint x="2742" y="1501.9999999999995" as="targetPoint"/>
                    </mxGeometry>
                </mxCell>
                <mxCell id="411" value="&lt;span style=&quot;color: rgb(255 , 255 , 255) ; font-size: 10px&quot;&gt;invoke-wallet-distribution&lt;/span&gt;" style="edgeLabel;html=1;align=center;verticalAlign=middle;resizable=0;points=[];fontSize=12;" parent="410" vertex="1" connectable="0">
                    <mxGeometry x="-0.18" y="-2" relative="1" as="geometry">
                        <mxPoint x="1" y="-61" as="offset"/>
                    </mxGeometry>
                </mxCell>
                <mxCell id="436" value="" style="sketch=0;html=1;aspect=fixed;strokeColor=none;shadow=0;align=center;verticalAlign=top;fillColor=#3B8DF1;shape=mxgraph.gcp2.process" parent="1" vertex="1">
                    <mxGeometry x="2633" y="1480.1" width="52" height="61.9" as="geometry"/>
                </mxCell>
                <mxCell id="437" value="&lt;span style=&quot;font-size: 10px&quot;&gt;&lt;br&gt;&lt;/span&gt;" style="rounded=0;whiteSpace=wrap;html=1;dashed=1;fontColor=#FFFFFF;align=left;" parent="1" vertex="1">
                    <mxGeometry x="1797" y="1741" width="400" height="374" as="geometry"/>
                </mxCell>
                <mxCell id="309" value="&lt;span style=&quot;font-size: 10px&quot;&gt;&lt;span&gt; &lt;/span&gt;&lt;span&gt; &lt;/span&gt;&lt;span&gt; &lt;/span&gt;&lt;span style=&quot;white-space: pre&quot;&gt; &lt;/span&gt;total_balance = &amp;lt;current_balance&amp;gt;&lt;br&gt;&lt;span&gt; &lt;/span&gt;&lt;span&gt; &lt;/span&gt;&lt;span&gt; &lt;/span&gt;&lt;span style=&quot;white-space: pre&quot;&gt; &lt;/span&gt;total_interest = &amp;lt;diff&amp;gt;&lt;br&gt;&lt;span&gt; &lt;/span&gt;&lt;br&gt;&lt;span&gt; &lt;/span&gt;&lt;span style=&quot;white-space: pre&quot;&gt; &lt;/span&gt;user_pending_iba_fees[]&lt;br&gt;&lt;br&gt;&lt;span&gt; &lt;/span&gt;&lt;span&gt; &lt;/span&gt;&lt;span style=&quot;white-space: pre&quot;&gt; &lt;/span&gt;user_each&lt;br&gt;&lt;br&gt;&lt;span&gt; &lt;/span&gt;&lt;span&gt; &lt;span&gt; &lt;/span&gt;&lt;/span&gt;&lt;span&gt; &lt;/span&gt;&lt;span&gt; &lt;/span&gt;&lt;span style=&quot;white-space: pre&quot;&gt; &lt;span style=&quot;white-space: pre&quot;&gt; &lt;/span&gt;&lt;/span&gt;user_balance =&amp;nbsp;&lt;/span&gt;&lt;span style=&quot;font-size: 10px&quot;&gt;&amp;lt;all_holded_user_deposit_amount&amp;gt;&lt;/span&gt;&lt;span style=&quot;font-size: 10px&quot;&gt;&lt;br&gt;&lt;span&gt; &lt;/span&gt;&lt;span&gt; &lt;span&gt; &lt;/span&gt;&lt;/span&gt;&lt;span&gt; &lt;/span&gt;&lt;span&gt; &lt;/span&gt;&lt;span style=&quot;white-space: pre&quot;&gt; &lt;/span&gt;&lt;span style=&quot;white-space: pre&quot;&gt; &lt;/span&gt;user_interest = (user_balance / total_balance) * diff&lt;br&gt;&lt;span&gt; &lt;/span&gt;&lt;span&gt; &lt;span&gt; &lt;/span&gt;&lt;/span&gt;&lt;span&gt; &lt;span&gt; &lt;/span&gt;&lt;/span&gt;&lt;span style=&quot;white-space: pre&quot;&gt; &lt;/span&gt;&lt;span style=&quot;white-space: pre&quot;&gt; &lt;/span&gt;&lt;b&gt;user_pending_iba_fee&lt;/b&gt;[X] = user_interest&lt;br&gt;&lt;span&gt; &lt;/span&gt;&lt;br&gt;&lt;span&gt; &lt;/span&gt;&lt;span style=&quot;white-space: pre&quot;&gt; &lt;/span&gt;&lt;b&gt;bitso_pending_iba_fee&lt;/b&gt; = total_interest - sum(&amp;nbsp;&lt;/span&gt;&lt;span style=&quot;font-size: 10px&quot;&gt;user_pending_iba_fees )&lt;/span&gt;&lt;span style=&quot;font-size: 10px&quot;&gt;&lt;br&gt;&lt;/span&gt;" style="rounded=0;whiteSpace=wrap;html=1;dashed=1;fontColor=#FFFFFF;align=left;" parent="1" vertex="1">
                    <mxGeometry x="1807.5" y="1922" width="360" height="178" as="geometry"/>
                </mxCell>
                <mxCell id="314" value="" style="group" parent="1" vertex="1" connectable="0">
                    <mxGeometry x="1810.75" y="1809" width="158.5" height="50.17000000000007" as="geometry"/>
                </mxCell>
                <mxCell id="311" value="calc-owner-interests" style="shape=process;whiteSpace=wrap;html=1;backgroundOutline=1;fontSize=10;fontColor=#FFFFFF;" parent="314" vertex="1">
                    <mxGeometry x="13.5" y="17.170000000000073" width="145" height="33" as="geometry"/>
                </mxCell>
                <mxCell id="312" value="" style="sketch=0;html=1;dashed=0;whitespace=wrap;fillColor=#2875E2;strokeColor=#ffffff;points=[[0.005,0.63,0],[0.1,0.2,0],[0.9,0.2,0],[0.5,0,0],[0.995,0.63,0],[0.72,0.99,0],[0.5,1,0],[0.28,0.99,0]];shape=mxgraph.kubernetes.icon;prIcon=job;fontSize=10;fontColor=#FFFFFF;" parent="314" vertex="1">
                    <mxGeometry width="34" height="32.64" as="geometry"/>
                </mxCell>
                <mxCell id="315" style="edgeStyle=none;html=1;entryX=0.25;entryY=0;entryDx=0;entryDy=0;dashed=1;fontSize=10;fontColor=#FFFFFF;startArrow=none;startFill=0;endArrow=none;endFill=0;startSize=6;endSize=6;strokeColor=#FFFFFF;strokeWidth=1;exitX=0.5;exitY=1;exitDx=0;exitDy=0;" parent="1" source="311" target="309" edge="1">
                    <mxGeometry relative="1" as="geometry">
                        <Array as="points"/>
                    </mxGeometry>
                </mxCell>
                <mxCell id="398" style="edgeStyle=none;html=1;fontSize=12;endArrow=classic;endFill=1;exitX=0.5;exitY=1;exitDx=0;exitDy=0;entryX=0.25;entryY=0;entryDx=0;entryDy=0;" parent="1" source="391" target="437" edge="1">
                    <mxGeometry relative="1" as="geometry">
                        <mxPoint x="1896.7702578600502" y="1579" as="sourcePoint"/>
                        <mxPoint x="1897" y="1732" as="targetPoint"/>
                    </mxGeometry>
                </mxCell>
                <mxCell id="399" value="calculate" style="edgeLabel;html=1;align=center;verticalAlign=middle;resizable=0;points=[];fontSize=12;" parent="398" vertex="1" connectable="0">
                    <mxGeometry x="-0.2066" y="-2" relative="1" as="geometry">
                        <mxPoint y="-10" as="offset"/>
                    </mxGeometry>
                </mxCell>
                <mxCell id="438" value="" style="sketch=0;html=1;aspect=fixed;strokeColor=none;shadow=0;align=center;verticalAlign=top;fillColor=#3B8DF1;shape=mxgraph.gcp2.process" parent="1" vertex="1">
                    <mxGeometry x="1797" y="1741" width="52" height="61.9" as="geometry"/>
                </mxCell>
                <mxCell id="439" value="" style="group" parent="1" vertex="1" connectable="0">
                    <mxGeometry x="2647" y="1549" width="158.5" height="50.17000000000007" as="geometry"/>
                </mxCell>
                <mxCell id="440" value="send-owner-interests" style="shape=process;whiteSpace=wrap;html=1;backgroundOutline=1;fontSize=10;fontColor=#FFFFFF;" parent="439" vertex="1">
                    <mxGeometry x="13.5" y="17.170000000000073" width="145" height="33" as="geometry"/>
                </mxCell>
                <mxCell id="441" value="" style="sketch=0;html=1;dashed=0;whitespace=wrap;fillColor=#2875E2;strokeColor=#ffffff;points=[[0.005,0.63,0],[0.1,0.2,0],[0.9,0.2,0],[0.5,0,0],[0.995,0.63,0],[0.72,0.99,0],[0.5,1,0],[0.28,0.99,0]];shape=mxgraph.kubernetes.icon;prIcon=job;fontSize=10;fontColor=#FFFFFF;" parent="439" vertex="1">
                    <mxGeometry width="34" height="32.64" as="geometry"/>
                </mxCell>
                <mxCell id="442" value="" style="edgeStyle=none;html=1;entryX=0.25;entryY=0;entryDx=0;entryDy=0;exitX=0.25;exitY=1;exitDx=0;exitDy=0;dashed=1;endArrow=none;endFill=0;" parent="1" source="440" target="349" edge="1">
                    <mxGeometry relative="1" as="geometry"/>
                </mxCell>
                <mxCell id="443" value="" style="shape=message;html=1;whiteSpace=wrap;html=1;outlineConnect=0;" parent="1" vertex="1">
                    <mxGeometry x="2795" y="1491.05" width="60" height="40" as="geometry"/>
                </mxCell>
                <mxCell id="453" value="" style="rounded=1;whiteSpace=wrap;html=1;strokeWidth=3;" parent="1" vertex="1">
                    <mxGeometry x="772" y="1521" width="449" height="582" as="geometry"/>
                </mxCell>
                <mxCell id="454" value="&lt;b&gt;During Deposit Operational Flow&lt;/b&gt;" style="text;html=1;strokeColor=none;fillColor=none;align=center;verticalAlign=middle;whiteSpace=wrap;rounded=0;" parent="1" vertex="1">
                    <mxGeometry x="796" y="1538.5" width="207" height="30" as="geometry"/>
                </mxCell>
                <mxCell id="445" value="&lt;u style=&quot;font-size: 10px&quot;&gt;Wallet Deposits&lt;br&gt;&lt;/u&gt;&lt;br&gt;&lt;font style=&quot;font-size: 10px&quot;&gt;somehow relates information about&amp;nbsp;&lt;br&gt;&amp;lt; user#-ccy-amount&amp;nbsp; &amp;gt;&lt;br&gt;&lt;/font&gt;" style="shape=note;size=20;whiteSpace=wrap;html=1;labelBackgroundColor=#2A2A2A;fontColor=#FFFFFF;dashed=1;align=center;" parent="1" vertex="1">
                    <mxGeometry x="879" y="1962.17" width="227" height="92" as="geometry"/>
                </mxCell>
                <mxCell id="446" value="" style="group" parent="1" vertex="1" connectable="0">
                    <mxGeometry x="898.25" y="1579" width="177.5" height="90" as="geometry"/>
                </mxCell>
                <mxCell id="447" value="bitso-whalefin-ownership" style="rounded=0;whiteSpace=wrap;html=1;" parent="446" vertex="1">
                    <mxGeometry x="17.5" y="30" width="160" height="60" as="geometry"/>
                </mxCell>
                <mxCell id="448" value="" style="verticalLabelPosition=bottom;html=1;verticalAlign=top;align=center;strokeColor=none;fillColor=#00BEF2;shape=mxgraph.azure.startup_task;pointerEvents=1;labelBackgroundColor=#2A2A2A;fontColor=#FFFFFF;gradientColor=none;shadow=0;" parent="446" vertex="1">
                    <mxGeometry width="47.5" height="50" as="geometry"/>
                </mxCell>
                <mxCell id="449" value="&lt;font color=&quot;#ffffff&quot;&gt;whalefin-deposit-ownership&lt;/font&gt;" style="sketch=0;points=[[0,0,0],[0.25,0,0],[0.5,0,0],[0.75,0,0],[1,0,0],[0,1,0],[0.25,1,0],[0.5,1,0],[0.75,1,0],[1,1,0],[0,0.25,0],[0,0.5,0],[0,0.75,0],[1,0.25,0],[1,0.5,0],[1,0.75,0]];outlineConnect=0;fontColor=#232F3E;gradientColor=#4D72F3;gradientDirection=north;fillColor=#3334B9;strokeColor=#ffffff;dashed=0;verticalLabelPosition=bottom;verticalAlign=top;align=center;html=1;fontSize=12;fontStyle=0;aspect=fixed;shape=mxgraph.aws4.resourceIcon;resIcon=mxgraph.aws4.aurora;" parent="1" vertex="1">
                    <mxGeometry x="962.75" y="1789.48" width="66" height="66" as="geometry"/>
                </mxCell>
                <mxCell id="450" style="edgeStyle=none;html=1;entryX=0.5;entryY=0;entryDx=0;entryDy=0;entryPerimeter=0;fontColor=#FFFFFF;startArrow=none;startFill=0;endArrow=none;endFill=0;strokeColor=#FFFFFF;dashed=1;" parent="1" source="449" target="445" edge="1">
                    <mxGeometry relative="1" as="geometry"/>
                </mxCell>
                <mxCell id="451" style="edgeStyle=none;html=1;entryX=0.5;entryY=0;entryDx=0;entryDy=0;entryPerimeter=0;dashed=1;fontSize=10;fontColor=#FFFFFF;startArrow=none;startFill=0;endArrow=none;endFill=0;strokeColor=#FFFFFF;" parent="1" source="447" target="449" edge="1">
                    <mxGeometry relative="1" as="geometry"/>
                </mxCell>
                <mxCell id="452" value="save" style="edgeLabel;html=1;align=center;verticalAlign=middle;resizable=0;points=[];fontSize=10;fontColor=#FFFFFF;" parent="451" vertex="1" connectable="0">
                    <mxGeometry x="-0.1102" y="-1" relative="1" as="geometry">
                        <mxPoint as="offset"/>
                    </mxGeometry>
                </mxCell>
                <mxCell id="455" value="" style="shape=flexArrow;endArrow=classic;html=1;strokeWidth=3;exitX=0.363;exitY=0.736;exitDx=0;exitDy=0;exitPerimeter=0;" parent="1" source="167" edge="1">
                    <mxGeometry width="50" height="50" relative="1" as="geometry">
                        <mxPoint x="1361" y="1828" as="sourcePoint"/>
                        <mxPoint x="1450.9999999999995" y="1892.2379182156133" as="targetPoint"/>
                    </mxGeometry>
                </mxCell>
            </root>
        </mxGraphModel>
    </diagram>
</mxfile>